<?xml version="1.0" encoding="UTF-8" standalone="no"?>
<!-- Created with Inkscape (http://www.inkscape.org/) -->

<svg
   width="25.4mm"
   height="9.260417mm"
   viewBox="0 0 25.4 9.260417"
   version="1.1"
   id="svg1"
   xml:space="preserve"
   inkscape:export-filename="favicon.svg"
   inkscape:export-xdpi="96"
   inkscape:export-ydpi="96"
   xmlns:inkscape="http://www.inkscape.org/namespaces/inkscape"
   xmlns:sodipodi="http://sodipodi.sourceforge.net/DTD/sodipodi-0.dtd"
   xmlns="http://www.w3.org/2000/svg"
   xmlns:svg="http://www.w3.org/2000/svg"><sodipodi:namedview
     id="namedview1"
     pagecolor="#505050"
     bordercolor="#eeeeee"
     borderopacity="1"
     inkscape:showpageshadow="0"
     inkscape:pageopacity="0"
     inkscape:pagecheckerboard="0"
     inkscape:deskcolor="#505050"
     inkscape:document-units="mm"><inkscape:page
       x="0"
       y="0"
       width="25.4"
       height="9.260417"
       id="page2"
       margin="0"
       bleed="0" /></sodipodi:namedview><defs
     id="defs1" /><rect
     style="fill:#ffffff;stroke-width:0.094462"
     id="rect1"
     width="25.4"
     height="9.260417"
     x="-4.2351647e-22"
     y="-1.0080123e-05" /><path
     style="fill:#000000;stroke-width:0.178205"
     d="m 11.852987,7.9131832 c -1.4225,-0.31026 -2.4823601,-1.48687 -2.6113501,-2.89901 -0.17907,-1.96033 1.0627001,-3.49155 3.0211601,-3.72539 2.83573,-0.33858004 4.80237,2.36365 3.56753,4.90189 -0.64831,1.33259 -2.3621,2.07481 -3.97734,1.72251 z m 1.59253,-0.665 c 2.57319,-0.66678 2.68738,-4.38094 0.15945,-5.1865 -1.8497,-0.58944 -3.6383801,0.6915 -3.6258301,2.59661 0.0118,1.79363 1.6927001,3.0495 3.4663801,2.58989 z M 2.1164629,4.6111332 v -3.32408 h 0.377202 0.377201 v 1.48523 1.48523 h 2.051036 2.051035 v -1.48523 -1.48523 h 0.353627 0.353626 v 3.32408 3.3241 h -0.353626 -0.353627 v -1.53239 -1.53238 h -2.051035 -2.051036 v 1.53238 1.53239 h -0.377201 -0.377202 z m 15.6067241,0.0236 v -3.30051 l 1.7092,8.9e-4 c 2.17069,10e-4 2.5055,0.065 3.04508,0.58158 0.72594,0.69502 0.57335,1.98761 -0.29332,2.48469 -0.13255,0.076 -0.20918,0.13846 -0.17029,0.13872 0.14724,0.001 0.65167,0.2792 0.82397,0.45443 0.61444,0.62489 0.5898,1.78391 -0.0505,2.3741 -0.54703,0.50423 -0.89124,0.56485 -3.21351,0.56587 l -1.85064,8.9e-4 z m 3.84463,2.61439 c 0.67206,-0.175 0.94078,-0.49753 0.94078,-1.12915 0,-0.63163 -0.26872,-0.95415 -0.94078,-1.12916 -0.22354,-0.0582 -0.56832,-0.0732 -1.68562,-0.0732 h -1.4046 v 1.20234 1.20233 h 1.4046 c 1.1173,0 1.46208,-0.015 1.68562,-0.0732 z m -0.26253,-3.06099 c 0.62684,-0.19902 0.87122,-0.53241 0.84316,-1.15023 -0.0222,-0.4899 -0.15779,-0.69652 -0.59975,-0.91422 -0.31046,-0.15293 -0.31046,-0.15293 -1.69078,-0.16791 l -1.38032,-0.015 v 1.18734 1.18735 l 1.28484,-0.0227 c 1.04363,-0.0185 1.33328,-0.0381 1.54285,-0.10463 z"
     id="path1" /></svg>
